<svg xmlns="http://www.w3.org/2000/svg" xmlns:xlink="http://www.w3.org/1999/xlink" width="1024" zoomAndPan="magnify" viewBox="0 0 768 767.999994" height="1024" preserveAspectRatio="xMidYMid meet" version="1.0"><defs><linearGradient x1="0" gradientTransform="matrix(0.75, 0, 0, 0.75, 0.000003, 0.00002)" y1="512" x2="1023.999957" gradientUnits="userSpaceOnUse" y2="512" id="eb0ed9d767"><stop stop-opacity="1" stop-color="rgb(80.389404%, 100%, 84.709167%)" offset="0"/><stop stop-opacity="1" stop-color="rgb(80.300903%, 99.891663%, 84.768677%)" offset="0.0078125"/><stop stop-opacity="1" stop-color="rgb(80.126953%, 99.676514%, 84.887695%)" offset="0.015625"/><stop stop-opacity="1" stop-color="rgb(79.953003%, 99.462891%, 85.00824%)" offset="0.0234375"/><stop stop-opacity="1" stop-color="rgb(79.777527%, 99.247742%, 85.127258%)" offset="0.03125"/><stop stop-opacity="1" stop-color="rgb(79.603577%, 99.034119%, 85.246277%)" offset="0.0390625"/><stop stop-opacity="1" stop-color="rgb(79.428101%, 98.81897%, 85.365295%)" offset="0.046875"/><stop stop-opacity="1" stop-color="rgb(79.25415%, 98.605347%, 85.48584%)" offset="0.0546875"/><stop stop-opacity="1" stop-color="rgb(79.078674%, 98.390198%, 85.604858%)" offset="0.0625"/><stop stop-opacity="1" stop-color="rgb(78.904724%, 98.176575%, 85.723877%)" offset="0.0703125"/><stop stop-opacity="1" stop-color="rgb(78.730774%, 97.961426%, 85.844421%)" offset="0.078125"/><stop stop-opacity="1" stop-color="rgb(78.555298%, 97.747803%, 85.96344%)" offset="0.0859375"/><stop stop-opacity="1" stop-color="rgb(78.381348%, 97.532654%, 86.082458%)" offset="0.09375"/><stop stop-opacity="1" stop-color="rgb(78.205872%, 97.317505%, 86.201477%)" offset="0.101562"/><stop stop-opacity="1" stop-color="rgb(78.031921%, 97.103882%, 86.322021%)" offset="0.109375"/><stop stop-opacity="1" stop-color="rgb(77.856445%, 96.888733%, 86.44104%)" offset="0.117188"/><stop stop-opacity="1" stop-color="rgb(77.682495%, 96.67511%, 86.560059%)" offset="0.125"/><stop stop-opacity="1" stop-color="rgb(77.508545%, 96.459961%, 86.680603%)" offset="0.132812"/><stop stop-opacity="1" stop-color="rgb(77.333069%, 96.246338%, 86.799622%)" offset="0.140625"/><stop stop-opacity="1" stop-color="rgb(77.159119%, 96.031189%, 86.91864%)" offset="0.148438"/><stop stop-opacity="1" stop-color="rgb(76.983643%, 95.817566%, 87.037659%)" offset="0.15625"/><stop stop-opacity="1" stop-color="rgb(76.809692%, 95.602417%, 87.158203%)" offset="0.164062"/><stop stop-opacity="1" stop-color="rgb(76.634216%, 95.388794%, 87.277222%)" offset="0.171875"/><stop stop-opacity="1" stop-color="rgb(76.460266%, 95.173645%, 87.39624%)" offset="0.179688"/><stop stop-opacity="1" stop-color="rgb(76.286316%, 94.958496%, 87.516785%)" offset="0.1875"/><stop stop-opacity="1" stop-color="rgb(76.11084%, 94.744873%, 87.635803%)" offset="0.195312"/><stop stop-opacity="1" stop-color="rgb(75.93689%, 94.529724%, 87.754822%)" offset="0.203125"/><stop stop-opacity="1" stop-color="rgb(75.761414%, 94.316101%, 87.87384%)" offset="0.210938"/><stop stop-opacity="1" stop-color="rgb(75.587463%, 94.100952%, 87.994385%)" offset="0.21875"/><stop stop-opacity="1" stop-color="rgb(75.411987%, 93.887329%, 88.113403%)" offset="0.226562"/><stop stop-opacity="1" stop-color="rgb(75.238037%, 93.67218%, 88.232422%)" offset="0.234375"/><stop stop-opacity="1" stop-color="rgb(75.062561%, 93.458557%, 88.352966%)" offset="0.242188"/><stop stop-opacity="1" stop-color="rgb(74.888611%, 93.243408%, 88.471985%)" offset="0.25"/><stop stop-opacity="1" stop-color="rgb(74.714661%, 93.029785%, 88.591003%)" offset="0.257812"/><stop stop-opacity="1" stop-color="rgb(74.539185%, 92.814636%, 88.710022%)" offset="0.265625"/><stop stop-opacity="1" stop-color="rgb(74.365234%, 92.599487%, 88.830566%)" offset="0.273438"/><stop stop-opacity="1" stop-color="rgb(74.189758%, 92.385864%, 88.949585%)" offset="0.28125"/><stop stop-opacity="1" stop-color="rgb(74.015808%, 92.170715%, 89.068604%)" offset="0.289062"/><stop stop-opacity="1" stop-color="rgb(73.840332%, 91.957092%, 89.189148%)" offset="0.296875"/><stop stop-opacity="1" stop-color="rgb(73.666382%, 91.741943%, 89.308167%)" offset="0.304688"/><stop stop-opacity="1" stop-color="rgb(73.492432%, 91.52832%, 89.427185%)" offset="0.3125"/><stop stop-opacity="1" stop-color="rgb(73.316956%, 91.313171%, 89.546204%)" offset="0.320312"/><stop stop-opacity="1" stop-color="rgb(73.143005%, 91.099548%, 89.666748%)" offset="0.328125"/><stop stop-opacity="1" stop-color="rgb(72.967529%, 90.884399%, 89.785767%)" offset="0.335938"/><stop stop-opacity="1" stop-color="rgb(72.793579%, 90.670776%, 89.904785%)" offset="0.34375"/><stop stop-opacity="1" stop-color="rgb(72.618103%, 90.455627%, 90.02533%)" offset="0.351562"/><stop stop-opacity="1" stop-color="rgb(72.444153%, 90.240479%, 90.144348%)" offset="0.359375"/><stop stop-opacity="1" stop-color="rgb(72.270203%, 90.026855%, 90.263367%)" offset="0.367188"/><stop stop-opacity="1" stop-color="rgb(72.094727%, 89.811707%, 90.382385%)" offset="0.375"/><stop stop-opacity="1" stop-color="rgb(71.920776%, 89.598083%, 90.50293%)" offset="0.382812"/><stop stop-opacity="1" stop-color="rgb(71.7453%, 89.382935%, 90.621948%)" offset="0.390625"/><stop stop-opacity="1" stop-color="rgb(71.57135%, 89.169312%, 90.740967%)" offset="0.398438"/><stop stop-opacity="1" stop-color="rgb(71.395874%, 88.954163%, 90.861511%)" offset="0.40625"/><stop stop-opacity="1" stop-color="rgb(71.221924%, 88.74054%, 90.98053%)" offset="0.414062"/><stop stop-opacity="1" stop-color="rgb(71.047974%, 88.525391%, 91.099548%)" offset="0.421875"/><stop stop-opacity="1" stop-color="rgb(70.872498%, 88.311768%, 91.218567%)" offset="0.429688"/><stop stop-opacity="1" stop-color="rgb(70.698547%, 88.096619%, 91.339111%)" offset="0.4375"/><stop stop-opacity="1" stop-color="rgb(70.523071%, 87.88147%, 91.45813%)" offset="0.445312"/><stop stop-opacity="1" stop-color="rgb(70.349121%, 87.667847%, 91.577148%)" offset="0.453125"/><stop stop-opacity="1" stop-color="rgb(70.173645%, 87.452698%, 91.697693%)" offset="0.460938"/><stop stop-opacity="1" stop-color="rgb(69.999695%, 87.239075%, 91.816711%)" offset="0.46875"/><stop stop-opacity="1" stop-color="rgb(69.825745%, 87.023926%, 91.93573%)" offset="0.476562"/><stop stop-opacity="1" stop-color="rgb(69.650269%, 86.810303%, 92.054749%)" offset="0.484375"/><stop stop-opacity="1" stop-color="rgb(69.476318%, 86.595154%, 92.175293%)" offset="0.492188"/><stop stop-opacity="1" stop-color="rgb(69.300842%, 86.381531%, 92.294312%)" offset="0.5"/><stop stop-opacity="1" stop-color="rgb(69.126892%, 86.166382%, 92.41333%)" offset="0.507812"/><stop stop-opacity="1" stop-color="rgb(68.951416%, 85.952759%, 92.533875%)" offset="0.515625"/><stop stop-opacity="1" stop-color="rgb(68.777466%, 85.73761%, 92.652893%)" offset="0.523438"/><stop stop-opacity="1" stop-color="rgb(68.603516%, 85.523987%, 92.771912%)" offset="0.53125"/><stop stop-opacity="1" stop-color="rgb(68.42804%, 85.308838%, 92.89093%)" offset="0.539062"/><stop stop-opacity="1" stop-color="rgb(68.254089%, 85.093689%, 93.011475%)" offset="0.546875"/><stop stop-opacity="1" stop-color="rgb(68.078613%, 84.880066%, 93.130493%)" offset="0.554688"/><stop stop-opacity="1" stop-color="rgb(67.904663%, 84.664917%, 93.249512%)" offset="0.5625"/><stop stop-opacity="1" stop-color="rgb(67.729187%, 84.451294%, 93.370056%)" offset="0.570312"/><stop stop-opacity="1" stop-color="rgb(67.555237%, 84.236145%, 93.489075%)" offset="0.578125"/><stop stop-opacity="1" stop-color="rgb(67.379761%, 84.022522%, 93.608093%)" offset="0.585938"/><stop stop-opacity="1" stop-color="rgb(67.205811%, 83.807373%, 93.727112%)" offset="0.59375"/><stop stop-opacity="1" stop-color="rgb(67.03186%, 83.59375%, 93.847656%)" offset="0.601562"/><stop stop-opacity="1" stop-color="rgb(66.856384%, 83.378601%, 93.966675%)" offset="0.609375"/><stop stop-opacity="1" stop-color="rgb(66.682434%, 83.164978%, 94.085693%)" offset="0.617188"/><stop stop-opacity="1" stop-color="rgb(66.506958%, 82.949829%, 94.206238%)" offset="0.625"/><stop stop-opacity="1" stop-color="rgb(66.333008%, 82.73468%, 94.325256%)" offset="0.632812"/><stop stop-opacity="1" stop-color="rgb(66.157532%, 82.521057%, 94.444275%)" offset="0.640625"/><stop stop-opacity="1" stop-color="rgb(65.983582%, 82.305908%, 94.563293%)" offset="0.648438"/><stop stop-opacity="1" stop-color="rgb(65.809631%, 82.092285%, 94.683838%)" offset="0.65625"/><stop stop-opacity="1" stop-color="rgb(65.634155%, 81.877136%, 94.802856%)" offset="0.664062"/><stop stop-opacity="1" stop-color="rgb(65.460205%, 81.663513%, 94.921875%)" offset="0.671875"/><stop stop-opacity="1" stop-color="rgb(65.284729%, 81.448364%, 95.042419%)" offset="0.679688"/><stop stop-opacity="1" stop-color="rgb(65.110779%, 81.234741%, 95.161438%)" offset="0.6875"/><stop stop-opacity="1" stop-color="rgb(64.935303%, 81.019592%, 95.280457%)" offset="0.695312"/><stop stop-opacity="1" stop-color="rgb(64.761353%, 80.805969%, 95.399475%)" offset="0.703125"/><stop stop-opacity="1" stop-color="rgb(64.587402%, 80.59082%, 95.52002%)" offset="0.710938"/><stop stop-opacity="1" stop-color="rgb(64.411926%, 80.375671%, 95.639038%)" offset="0.71875"/><stop stop-opacity="1" stop-color="rgb(64.237976%, 80.162048%, 95.758057%)" offset="0.726562"/><stop stop-opacity="1" stop-color="rgb(64.0625%, 79.946899%, 95.878601%)" offset="0.734375"/><stop stop-opacity="1" stop-color="rgb(63.88855%, 79.733276%, 95.99762%)" offset="0.742188"/><stop stop-opacity="1" stop-color="rgb(63.713074%, 79.518127%, 96.116638%)" offset="0.75"/><stop stop-opacity="1" stop-color="rgb(63.539124%, 79.304504%, 96.235657%)" offset="0.757812"/><stop stop-opacity="1" stop-color="rgb(63.365173%, 79.089355%, 96.356201%)" offset="0.765625"/><stop stop-opacity="1" stop-color="rgb(63.189697%, 78.875732%, 96.47522%)" offset="0.773438"/><stop stop-opacity="1" stop-color="rgb(63.015747%, 78.660583%, 96.594238%)" offset="0.78125"/><stop stop-opacity="1" stop-color="rgb(62.840271%, 78.44696%, 96.714783%)" offset="0.789062"/><stop stop-opacity="1" stop-color="rgb(62.666321%, 78.231812%, 96.833801%)" offset="0.796875"/><stop stop-opacity="1" stop-color="rgb(62.490845%, 78.016663%, 96.95282%)" offset="0.804688"/><stop stop-opacity="1" stop-color="rgb(62.316895%, 77.80304%, 97.071838%)" offset="0.8125"/><stop stop-opacity="1" stop-color="rgb(62.142944%, 77.587891%, 97.192383%)" offset="0.820312"/><stop stop-opacity="1" stop-color="rgb(61.967468%, 77.374268%, 97.311401%)" offset="0.828125"/><stop stop-opacity="1" stop-color="rgb(61.793518%, 77.159119%, 97.43042%)" offset="0.835938"/><stop stop-opacity="1" stop-color="rgb(61.618042%, 76.945496%, 97.550964%)" offset="0.84375"/><stop stop-opacity="1" stop-color="rgb(61.444092%, 76.730347%, 97.669983%)" offset="0.851562"/><stop stop-opacity="1" stop-color="rgb(61.268616%, 76.516724%, 97.789001%)" offset="0.859375"/><stop stop-opacity="1" stop-color="rgb(61.094666%, 76.301575%, 97.90802%)" offset="0.867188"/><stop stop-opacity="1" stop-color="rgb(60.920715%, 76.087952%, 98.028564%)" offset="0.875"/><stop stop-opacity="1" stop-color="rgb(60.745239%, 75.872803%, 98.147583%)" offset="0.882812"/><stop stop-opacity="1" stop-color="rgb(60.571289%, 75.657654%, 98.266602%)" offset="0.890625"/><stop stop-opacity="1" stop-color="rgb(60.395813%, 75.444031%, 98.387146%)" offset="0.898438"/><stop stop-opacity="1" stop-color="rgb(60.221863%, 75.228882%, 98.506165%)" offset="0.90625"/><stop stop-opacity="1" stop-color="rgb(60.046387%, 75.015259%, 98.625183%)" offset="0.914062"/><stop stop-opacity="1" stop-color="rgb(59.872437%, 74.80011%, 98.744202%)" offset="0.921875"/><stop stop-opacity="1" stop-color="rgb(59.69696%, 74.586487%, 98.864746%)" offset="0.929688"/><stop stop-opacity="1" stop-color="rgb(59.52301%, 74.371338%, 98.983765%)" offset="0.9375"/><stop stop-opacity="1" stop-color="rgb(59.34906%, 74.157715%, 99.102783%)" offset="0.945312"/><stop stop-opacity="1" stop-color="rgb(59.173584%, 73.942566%, 99.223328%)" offset="0.953125"/><stop stop-opacity="1" stop-color="rgb(58.999634%, 73.728943%, 99.342346%)" offset="0.960938"/><stop stop-opacity="1" stop-color="rgb(58.824158%, 73.513794%, 99.461365%)" offset="0.96875"/><stop stop-opacity="1" stop-color="rgb(58.650208%, 73.300171%, 99.580383%)" offset="0.976562"/><stop stop-opacity="1" stop-color="rgb(58.474731%, 73.085022%, 99.700928%)" offset="0.984375"/><stop stop-opacity="1" stop-color="rgb(58.300781%, 72.869873%, 99.819946%)" offset="0.992188"/><stop stop-opacity="1" stop-color="rgb(58.126831%, 72.65625%, 99.938965%)" offset="1"/></linearGradient><clipPath id="0faacb34c7"><path d="M 24.476562 77 L 743.726562 77 L 743.726562 695 L 24.476562 695 Z M 24.476562 77 " clip-rule="nonzero"/></clipPath></defs><rect x="-76.8" width="921.6" fill="#ffffff" y="-76.799999" height="921.599993" fill-opacity="1"/><rect x="-76.8" fill="url(#eb0ed9d767)" width="921.6" y="-76.799999" height="921.599993"/><path fill="#000000" d="M 94.550781 372.765625 C 94.554688 377.226562 94.6875 381.6875 94.953125 386.140625 C 95.222656 390.59375 95.621094 395.039062 96.148438 399.46875 C 96.675781 403.898438 97.335938 408.3125 98.125 412.703125 C 98.914062 417.09375 99.832031 421.460938 100.878906 425.796875 C 101.925781 430.136719 103.097656 434.4375 104.398438 438.707031 C 105.699219 442.976562 107.125 447.203125 108.675781 451.386719 C 110.226562 455.570312 111.898438 459.707031 113.691406 463.792969 C 115.484375 467.878906 117.398438 471.90625 119.429688 475.878906 C 121.460938 479.851562 123.609375 483.761719 125.871094 487.609375 C 128.136719 491.453125 130.507812 495.230469 132.996094 498.9375 C 135.480469 502.644531 138.070312 506.273438 140.773438 509.824219 C 143.472656 513.378906 146.273438 516.851562 149.175781 520.238281 C 152.082031 523.625 155.082031 526.925781 158.183594 530.136719 C 161.28125 533.347656 164.472656 536.460938 167.753906 539.484375 C 171.039062 542.507812 174.40625 545.429688 177.863281 548.253906 C 181.316406 551.078125 184.855469 553.796875 188.46875 556.410156 C 192.085938 559.027344 195.777344 561.53125 199.539062 563.929688 C 203.304688 566.328125 207.132812 568.609375 211.03125 570.78125 C 214.929688 572.953125 218.890625 575.007812 222.910156 576.945312 C 226.929688 578.882812 231.003906 580.699219 235.128906 582.394531 C 239.257812 584.09375 243.429688 585.667969 247.652344 587.117188 C 251.871094 588.570312 256.128906 589.894531 260.429688 591.09375 C 264.726562 592.292969 269.054688 593.363281 273.417969 594.308594 C 277.777344 595.253906 282.164062 596.066406 286.574219 596.75 C 290.980469 597.4375 295.40625 597.992188 299.851562 598.414062 C 304.292969 598.839844 308.742188 599.132812 313.203125 599.292969 C 317.660156 599.457031 322.121094 599.484375 326.582031 599.382812 C 331.042969 599.28125 335.5 599.046875 339.945312 598.683594 C 344.394531 598.320312 348.828125 597.824219 353.246094 597.195312 C 357.664062 596.570312 362.058594 595.816406 366.433594 594.929688 C 370.804688 594.042969 375.148438 593.03125 379.464844 591.886719 C 383.777344 590.746094 388.054688 589.476562 392.292969 588.082031 L 446.066406 642.050781 C 441.644531 644.097656 437.171875 646.03125 432.65625 647.859375 C 428.140625 649.683594 423.578125 651.398438 418.976562 653 C 414.378906 654.601562 409.738281 656.089844 405.0625 657.464844 C 400.390625 658.835938 395.683594 660.09375 390.949219 661.234375 C 386.210938 662.378906 381.449219 663.402344 376.660156 664.308594 C 371.875 665.21875 367.070312 666.007812 362.242188 666.679688 C 357.417969 667.347656 352.578125 667.902344 347.722656 668.335938 C 342.871094 668.765625 338.011719 669.082031 333.140625 669.273438 C 328.273438 669.46875 323.402344 669.542969 318.53125 669.496094 C 313.660156 669.449219 308.792969 669.285156 303.925781 669 C 299.0625 668.714844 294.210938 668.308594 289.367188 667.785156 C 284.523438 667.257812 279.695312 666.617188 274.882812 665.855469 C 270.070312 665.09375 265.277344 664.210938 260.507812 663.214844 C 255.742188 662.21875 251 661.101562 246.285156 659.871094 C 241.570312 658.640625 236.890625 657.296875 232.242188 655.832031 C 227.59375 654.371094 222.984375 652.796875 218.414062 651.109375 C 213.84375 649.421875 209.316406 647.621094 204.835938 645.710938 C 200.351562 643.800781 195.921875 641.78125 191.539062 639.652344 C 187.15625 637.523438 182.828125 635.289062 178.554688 632.945312 C 174.28125 630.601562 170.070312 628.15625 165.917969 625.609375 C 161.765625 623.058594 157.679688 620.410156 153.65625 617.660156 C 149.636719 614.910156 145.683594 612.0625 141.800781 609.117188 C 137.921875 606.171875 134.113281 603.132812 130.382812 600 C 126.648438 596.871094 122.996094 593.648438 119.421875 590.335938 C 115.847656 587.023438 112.359375 583.625 108.953125 580.144531 C 105.546875 576.660156 102.226562 573.09375 98.996094 569.445312 C 95.765625 565.800781 92.625 562.078125 89.578125 558.273438 C 86.53125 554.472656 83.578125 550.597656 80.722656 546.652344 C 77.863281 542.707031 75.105469 538.691406 72.445312 534.609375 C 69.785156 530.527344 67.230469 526.382812 64.773438 522.171875 C 62.316406 517.964844 59.96875 513.699219 57.722656 509.375 C 55.476562 505.050781 53.335938 500.675781 51.308594 496.246094 C 50.140625 490.3125 49.171875 484.347656 48.398438 478.347656 C 47.621094 472.351562 47.046875 466.335938 46.667969 460.300781 C 46.289062 454.265625 46.113281 448.222656 46.132812 442.175781 C 46.152344 436.128906 46.367188 430.089844 46.785156 424.054688 C 47.203125 418.023438 47.820312 412.011719 48.632812 406.019531 C 49.445312 400.027344 50.453125 394.066406 51.660156 388.140625 C 52.863281 382.214844 54.261719 376.335938 55.855469 370.5 C 57.445312 364.667969 59.230469 358.890625 61.199219 353.175781 C 63.171875 347.457031 65.332031 341.8125 67.675781 336.238281 C 70.019531 330.664062 72.542969 325.171875 75.25 319.765625 C 77.953125 314.355469 80.835938 309.042969 83.890625 303.824219 C 86.945312 298.605469 90.167969 293.492188 93.558594 288.484375 C 96.949219 283.480469 100.503906 278.589844 104.214844 273.816406 C 107.929688 269.042969 111.796875 264.398438 115.816406 259.878906 C 119.832031 255.359375 123.996094 250.980469 128.304688 246.734375 C 132.613281 242.492188 137.054688 238.394531 141.632812 234.441406 C 137.839844 239.351562 134.257812 244.40625 130.878906 249.613281 C 127.503906 254.816406 124.351562 260.152344 121.414062 265.617188 C 118.480469 271.082031 115.773438 276.660156 113.296875 282.347656 C 110.824219 288.035156 108.585938 293.816406 106.585938 299.6875 C 104.589844 305.558594 102.835938 311.503906 101.324219 317.523438 C 99.816406 323.539062 98.558594 329.609375 97.550781 335.730469 C 96.542969 341.851562 95.789062 348.003906 95.285156 354.1875 C 94.785156 360.371094 94.539062 366.5625 94.550781 372.765625 Z M 94.550781 372.765625 " fill-opacity="1" fill-rule="evenodd"/><g clip-path="url(#0faacb34c7)"><path fill="#8379cd" d="M 617.96875 372.765625 C 617.984375 382.015625 617.5625 391.246094 616.707031 400.457031 C 615.855469 409.667969 614.570312 418.820312 612.859375 427.910156 C 611.148438 437.003906 609.011719 445.992188 606.457031 454.882812 C 603.902344 463.773438 600.933594 472.523438 597.558594 481.136719 C 594.179688 489.75 590.40625 498.183594 586.238281 506.441406 C 582.070312 514.699219 577.523438 522.746094 572.597656 530.578125 C 567.675781 538.410156 562.394531 545.992188 556.761719 553.328125 C 551.125 560.664062 545.160156 567.71875 538.859375 574.496094 C 590.476562 614.441406 649.152344 645.820312 743.515625 616.703125 C 514.824219 840.640625 446.335938 508.539062 277.375 501.859375 C 373.28125 457.691406 430.671875 488.171875 484.285156 530.21875 C 488.121094 526.246094 491.808594 522.136719 495.34375 517.890625 C 498.878906 513.648438 502.253906 509.28125 505.472656 504.789062 C 508.6875 500.300781 511.738281 495.695312 514.617188 490.984375 C 517.5 486.269531 520.203125 481.457031 522.730469 476.542969 C 525.257812 471.632812 527.605469 466.636719 529.769531 461.554688 C 531.933594 456.46875 533.90625 451.316406 535.691406 446.085938 C 537.480469 440.859375 539.074219 435.574219 540.472656 430.230469 C 541.871094 424.886719 543.074219 419.5 544.082031 414.066406 C 545.085938 408.636719 545.894531 403.175781 546.5 397.683594 C 547.109375 392.191406 547.511719 386.6875 547.71875 381.167969 C 547.921875 375.648438 547.925781 370.125 547.726562 364.605469 C 547.527344 359.085938 547.125 353.578125 546.523438 348.089844 C 545.921875 342.597656 545.121094 337.132812 544.121094 331.703125 C 543.117188 326.269531 541.921875 320.878906 540.527344 315.535156 C 539.128906 310.191406 537.542969 304.902344 535.761719 299.675781 C 533.980469 294.445312 532.007812 289.289062 529.851562 284.203125 C 527.691406 279.117188 525.351562 274.117188 522.828125 269.203125 C 520.304688 264.289062 517.605469 259.476562 514.726562 254.757812 C 511.851562 250.042969 508.808594 245.4375 505.59375 240.945312 C 502.382812 236.449219 499.011719 232.078125 495.476562 227.832031 C 491.945312 223.585938 488.261719 219.472656 484.429688 215.492188 C 480.597656 211.515625 476.625 207.683594 472.511719 203.996094 C 468.398438 200.304688 464.15625 196.773438 459.785156 193.394531 C 455.414062 190.019531 450.925781 186.804688 446.320312 183.753906 C 441.714844 180.707031 437 177.828125 432.183594 175.125 C 427.367188 172.417969 422.460938 169.894531 417.457031 167.546875 C 412.457031 165.199219 407.378906 163.039062 402.21875 161.066406 C 397.058594 159.089844 391.835938 157.304688 386.546875 155.714844 C 381.257812 154.121094 375.914062 152.722656 370.523438 151.519531 C 365.132812 150.316406 359.703125 149.3125 354.238281 148.507812 C 348.773438 147.703125 343.285156 147.097656 337.777344 146.691406 C 332.269531 146.289062 326.75 146.085938 321.226562 146.082031 C 316.734375 146.085938 312.246094 146.1875 307.761719 146.390625 C 303.277344 146.59375 298.796875 146.898438 294.324219 147.308594 C 289.851562 147.714844 285.390625 148.222656 280.941406 148.832031 C 276.492188 149.441406 272.058594 150.152344 267.644531 150.964844 C 263.226562 151.773438 258.832031 152.683594 254.453125 153.695312 C 250.078125 154.707031 245.730469 155.816406 241.402344 157.023438 C 237.078125 158.230469 232.78125 159.535156 228.515625 160.941406 C 224.25 162.34375 220.019531 163.839844 215.820312 165.4375 C 211.625 167.03125 207.464844 168.722656 203.34375 170.503906 C 199.222656 172.289062 195.144531 174.164062 191.105469 176.132812 C 187.070312 178.101562 183.082031 180.164062 179.140625 182.3125 C 175.195312 184.464844 171.304688 186.703125 167.464844 189.027344 C 163.621094 191.355469 159.835938 193.769531 156.105469 196.265625 C 152.375 198.765625 148.699219 201.347656 145.085938 204.011719 C 141.472656 206.675781 137.921875 209.421875 134.429688 212.25 C 130.941406 215.078125 127.519531 217.980469 124.160156 220.960938 C 120.800781 223.945312 117.515625 227 114.296875 230.132812 C 111.074219 233.265625 107.929688 236.464844 104.855469 239.742188 C 101.78125 243.015625 98.785156 246.355469 95.863281 249.765625 C 92.941406 253.175781 90.097656 256.652344 87.332031 260.191406 C 84.570312 263.730469 81.886719 267.328125 79.285156 270.992188 C 76.683594 274.652344 74.167969 278.371094 71.738281 282.144531 C 69.304688 285.921875 66.960938 289.75 64.703125 293.628906 C 62.445312 297.511719 60.273438 301.441406 58.195312 305.421875 C 56.113281 309.402344 54.125 313.429688 52.230469 317.5 C 50.332031 321.570312 48.527344 325.679688 46.816406 329.832031 C 45.109375 333.984375 43.492188 338.171875 41.972656 342.398438 C 40.453125 346.625 39.027344 350.882812 37.699219 355.171875 C 36.375 359.460938 35.144531 363.78125 34.015625 368.125 C 32.882812 372.472656 31.851562 376.839844 30.917969 381.234375 C 29.984375 385.628906 29.152344 390.039062 28.421875 394.46875 C 27.6875 398.898438 27.054688 403.34375 26.527344 407.804688 C 25.160156 396.164062 24.476562 384.484375 24.476562 372.765625 C 24.5 367.921875 24.636719 363.082031 24.894531 358.246094 C 25.152344 353.40625 25.527344 348.578125 26.019531 343.761719 C 26.511719 338.941406 27.125 334.140625 27.851562 329.351562 C 28.582031 324.5625 29.425781 319.792969 30.386719 315.046875 C 31.351562 310.300781 32.429688 305.578125 33.621094 300.882812 C 34.8125 296.191406 36.121094 291.527344 37.542969 286.894531 C 38.964844 282.265625 40.5 277.671875 42.144531 273.117188 C 43.792969 268.5625 45.550781 264.050781 47.417969 259.582031 C 49.285156 255.109375 51.257812 250.691406 53.34375 246.316406 C 55.425781 241.945312 57.617188 237.625 59.914062 233.359375 C 62.207031 229.09375 64.605469 224.890625 67.109375 220.742188 C 69.609375 216.59375 72.210938 212.507812 74.910156 208.488281 C 77.613281 204.46875 80.410156 200.515625 83.304688 196.632812 C 86.203125 192.75 89.191406 188.9375 92.269531 185.203125 C 95.351562 181.464844 98.523438 177.804688 101.785156 174.222656 C 105.046875 170.640625 108.390625 167.140625 111.824219 163.722656 C 115.253906 160.304688 118.769531 156.972656 122.363281 153.726562 C 125.960938 150.480469 129.632812 147.324219 133.382812 144.257812 C 137.132812 141.191406 140.953125 138.21875 144.851562 135.339844 C 148.746094 132.460938 152.710938 129.679688 156.742188 126.996094 C 160.773438 124.3125 164.867188 121.726562 169.023438 119.242188 C 173.183594 116.757812 177.398438 114.375 181.675781 112.097656 C 185.949219 109.820312 190.277344 107.648438 194.660156 105.582031 C 199.039062 103.515625 203.46875 101.558594 207.945312 99.710938 C 212.421875 97.859375 216.941406 96.121094 221.503906 94.496094 C 226.066406 92.867188 230.664062 91.351562 235.300781 89.949219 C 239.9375 88.546875 244.605469 87.257812 249.304688 86.085938 C 254.003906 84.910156 258.730469 83.851562 263.480469 82.910156 C 268.234375 81.96875 273.003906 81.140625 277.796875 80.433594 C 282.585938 79.722656 287.394531 79.132812 292.214844 78.660156 C 297.035156 78.1875 301.863281 77.832031 306.703125 77.59375 C 311.539062 77.355469 316.378906 77.238281 321.222656 77.238281 C 326.066406 77.238281 330.910156 77.355469 335.746094 77.59375 C 340.585938 77.832031 345.414062 78.1875 350.234375 78.660156 C 355.054688 79.132812 359.863281 79.722656 364.652344 80.433594 C 369.445312 81.140625 374.214844 81.96875 378.96875 82.910156 C 383.71875 83.851562 388.445312 84.910156 393.144531 86.085938 C 397.84375 87.257812 402.511719 88.546875 407.148438 89.949219 C 411.78125 91.351562 416.382812 92.867188 420.945312 94.496094 C 425.507812 96.121094 430.027344 97.859375 434.503906 99.710938 C 438.980469 101.558594 443.410156 103.515625 447.789062 105.582031 C 452.171875 107.648438 456.5 109.820312 460.773438 112.097656 C 465.046875 114.375 469.265625 116.757812 473.421875 119.242188 C 477.582031 121.726562 481.675781 124.3125 485.707031 126.996094 C 489.738281 129.679688 493.703125 132.460938 497.597656 135.339844 C 501.492188 138.21875 505.316406 141.191406 509.066406 144.257812 C 512.816406 147.324219 516.488281 150.480469 520.085938 153.726562 C 523.679688 156.972656 527.191406 160.304688 530.625 163.722656 C 534.058594 167.140625 537.402344 170.640625 540.664062 174.222656 C 543.925781 177.804688 547.097656 181.464844 550.175781 185.203125 C 553.257812 188.9375 556.246094 192.75 559.140625 196.632812 C 562.039062 200.515625 564.835938 204.46875 567.535156 208.488281 C 570.238281 212.507812 572.839844 216.59375 575.339844 220.742188 C 577.84375 224.890625 580.242188 229.09375 582.535156 233.359375 C 584.832031 237.625 587.019531 241.945312 589.105469 246.316406 C 591.1875 250.691406 593.164062 255.109375 595.03125 259.582031 C 596.898438 264.050781 598.65625 268.5625 600.304688 273.117188 C 601.949219 277.671875 603.484375 282.265625 604.90625 286.894531 C 606.328125 291.527344 607.632812 296.191406 608.828125 300.882812 C 610.019531 305.578125 611.097656 310.300781 612.058594 315.046875 C 613.023438 319.792969 613.867188 324.5625 614.597656 329.351562 C 615.324219 334.140625 615.9375 338.941406 616.429688 343.761719 C 616.921875 348.582031 617.296875 353.40625 617.554688 358.246094 C 617.8125 363.082031 617.949219 367.921875 617.96875 372.765625 Z M 617.96875 372.765625 " fill-opacity="1" fill-rule="evenodd"/></g></svg>